<?xml version="1.0" standalone="no"?><!DOCTYPE svg PUBLIC "-//W3C//DTD SVG 1.1//EN" "http://www.w3.org/Graphics/SVG/1.1/DTD/svg11.dtd"><svg t="1611300924206" class="icon" viewBox="0 0 1204 1024" version="1.1" xmlns="http://www.w3.org/2000/svg" p-id="9531" xmlns:xlink="http://www.w3.org/1999/xlink" width="176.3671875" height="150"><defs><style type="text/css"></style></defs><path d="M721.217255 233.833412c-16.062745-4.818824-36.141176 10.440784-20.881569 22.487843 12.850196 16.082824 17.66902 36.181333 23.290981 56.259765 24.094118-10.440784 38.550588-43.369412 19.275294-65.094275-5.621961-5.621961-9.637647-12.850196-17.66902-13.653333h-4.015686zM427.26902 0C662.588235 0 853.734902 70.716235 853.734902 157.495216v64.291137c-13.653333-12.850196-28.109804-24.897255-43.369412-36.161255-19.275294-15.259608-41.763137-23.29098-63.447843-30.519216l-8.83451-4.035764-37.747451-6.425098-5.621961-5.621961a54.071216 54.071216 0 0 0-11.243921-12.047059c-20.078431-16.885961-59.432157-45.81898-96.376471-50.637804-30.519216-4.015686-56.219608 9.637647-70.676078 37.767529-20.881569 41.783216 4.818824 85.172706 19.275294 108.483765 1.606275 3.212549 4.015686 7.228235 5.621961 9.637647l5.621961 9.637647c5.621961 11.243922 12.047059 22.487843 15.259607 32.145569 0.803137 4.015686 1.606275 8.83451 1.606275 12.850196l2.409412 16.062745c2.409412 8.051451 4.015686 15.279686 5.62196 22.528 4.015686 20.078431 8.83451 40.96 15.259608 60.255373 4.818824 13.653333 10.440784 27.306667 16.865883 40.176941-53.810196 8.83451-113.242353 14.456471-176.690196 14.45647C191.949804 440.360157 0.803137 369.643922 0.803137 282.864941V157.495216C0.803137 70.716235 191.949804 0 427.26902 0zM0.803137 377.675294c0 86.77898 191.146667 157.495216 426.465883 157.495216 54.613333 0 106.817255-4.015686 155.00549-11.243922-10.440784 55.436549-6.425098 114.105725 12.850196 156.692079 4.818824 10.440784 9.637647 19.275294 15.259608 27.306666-55.416471 9.637647-117.258039 15.279686-183.115294 15.279687-235.319216 0-426.465882-70.716235-426.465883-157.495216V377.675294z m602.352941-239.455372h6.425098c28.912941 4.015686 61.038431 27.306667 77.101177 40.96 6.425098 5.621961 12.850196 16.082824 20.078431 20.098509 12.850196 2.409412 24.897255 4.818824 36.944314 6.425098 22.487843 8.031373 43.369412 14.456471 59.432157 28.129883 78.707451 61.881725 127.698824 120.530824 168.658823 215.361255 8.83451 19.275294 12.047059 40.96 18.472157 61.861647 9.637647 31.342431 20.078431 64.291137 30.519216 94.830431 5.621961 14.456471 8.83451 29.716078 16.062745 42.586353 3.212549 5.621961 12.850196 8.031373 17.66902 11.243922 15.259608 10.440784 33.731765 19.275294 48.188235 31.342431 25.700392 21.684706 50.597647 47.405176 73.08549 72.32251 8.83451 9.637647 13.653333 23.29098 21.684706 33.731764l-0.803137 4.838902-24.094118 4.818824c-17.66902 3.212549-32.12549 0-49.79451 3.212549-10.440784 1.606275-23.29098 4.818824-34.534902 4.818824 0 0.803137 0.803137 0.803137 0.803138 1.606274 4.015686 19.275294 36.944314 39.373804 50.597647 52.244078 17.66902 16.865882 33.731765 36.141176 45.778823 57.845961l12.850196 16.865883c2.409412 5.621961 3.212549 12.067137 6.425098 17.689098v0.803137c-4.015686-1.606275-46.581961-9.637647-94.770196-30.519216-35.338039-15.279686-101.195294-45.015843-103.604706-47.425255-171.871373-82.763294-157.414902-88.385255-181.509019-106.87749-13.653333-11.243922-21.684706-24.094118-32.12549-34.534902-20.078431-20.09851-43.369412-49.834667-56.219608-76.358274-4.015686-15.259608-8.83451-30.519216-14.456471-45.778824v-0.803137c-3.212549 4.015686-2.409412 8.031373-4.818823 13.653333-8.83451 25.700392-7.228235 55.436549-29.716079 63.467922-26.503529 8.031373-41.763137-21.684706-48.188235-36.141177-20.881569-46.622118-19.275294-119.747765 4.015686-176.790588 4.818824-12.850196 7.228235-28.93302 15.259608-38.570667 0-9.637647-7.228235-12.850196-10.440784-19.275294-5.621961-10.460863-10.440784-22.507922-14.456471-33.771921-8.031373-22.487843-12.850196-49.011451-18.472157-73.125647-2.409412-9.637647-1.606275-18.472157-4.818823-28.109804-4.818824-14.456471-13.653333-28.93302-20.078432-41.783216-9.637647-18.492235-38.550588-55.456627-22.487843-88.405333 9.637647-19.275294 24.897255-24.094118 41.763137-22.487843h-6.425098z m-602.352941 522.300235l0.803138 8.031372c11.243922 82.783373 197.571765 149.463843 425.662745 149.463844 130.911373 0 248.169412-21.684706 326.073725-56.239687 4.818824 5.621961 9.637647 11.243922 15.259608 16.062745 4.015686 4.015686 8.031373 8.83451 11.243922 12.850196 7.228235 8.031373 15.259608 17.689098 25.700392 26.523608 4.015686 3.212549 7.228235 5.621961 9.637647 8.83451 7.228235 7.228235 16.062745 15.279686 36.944313 28.93302-8.83451 83.58651-195.96549 151.070118-425.662745 151.070117C191.146667 1006.049882 0 935.353725 0 848.554667v-188.03451h0.803137z" p-id="9532"></path></svg>