<?xml version="1.0" standalone="no"?><!DOCTYPE svg PUBLIC "-//W3C//DTD SVG 1.1//EN" "http://www.w3.org/Graphics/SVG/1.1/DTD/svg11.dtd"><svg t="1610528496525" class="icon" viewBox="0 0 1024 1024" version="1.1" xmlns="http://www.w3.org/2000/svg" p-id="2550" xmlns:xlink="http://www.w3.org/1999/xlink" width="200" height="200"><defs><style type="text/css"></style></defs><path d="M921.6 651.636c5.585 5.586 9.31 5.586 9.31 9.31 29.788 24.203 44.683 39.098 44.683 39.098 5.585 5.585 9.309 9.309 9.309 14.894l5.585 5.586c20.48 29.789 14.895 63.301 0 89.367-14.894 29.789-39.098 59.578-59.578 78.196-39.098 39.098-94.953 78.197-169.425 78.197H737.28c-98.676-9.31-303.476-119.157-446.836-251.346C148.945 577.164 33.513 385.396 18.618 292.305c0-63.301 35.375-132.189 104.262-191.767l5.585-5.585c24.204-20.48 44.684-35.375 80.059-50.27 24.203-9.308 50.269-9.308 68.887 0 5.585 5.586 14.894 11.172 14.894 11.172s39.099 20.48 74.473 68.887c14.895 9.309 35.375 35.374 44.684 59.578 20.48 35.375 35.374 68.887 35.374 68.887l5.586 9.31c9.309 24.203 5.585 53.992-20.48 74.472l-14.895 9.31c-9.309 9.308-9.309 14.894-14.894 14.894-5.586 0-5.586 5.585-9.31 5.585-14.894 9.31-24.203 14.895-39.098 20.48-9.309 5.586-20.48 5.586-29.789 14.895-9.309 5.585-9.309 24.203-9.309 24.203 20.48 44.684 59.578 93.091 124.742 152.67 53.993 53.992 113.571 89.367 158.255 113.57 20.48 9.31 39.098-9.309 44.683-14.894l14.895-29.79c5.585-9.308 9.309-14.894 9.309-20.48 9.309-14.894 20.48-29.788 29.789-39.097s20.48-20.48 35.375-24.204c20.48-5.586 44.683-5.586 59.578 5.585l20.48 9.31c5.585 0 5.585 5.585 9.309 5.585L921.6 651.636z m-182.458-24.203s-5.586 9.309-20.48 29.789c-5.586 5.585-5.586 9.309-9.31 20.48l-14.894 29.789c-24.203 44.684-80.058 68.887-128.465 39.098-50.27-29.789-109.848-63.302-173.15-122.88-68.887-63.302-113.57-119.156-139.636-173.149-14.894-29.79-9.309-89.367 39.098-107.985 14.895-5.586 24.204-9.31 35.375-14.895s20.48-5.585 24.204-9.31c9.309-5.585 14.894-9.308 14.894-9.308 5.586 0 5.586-5.586 14.895-9.31l5.585-5.585c5.586-5.585 5.586-5.585 5.586-9.309v-5.585l-29.79-59.578c-14.894-20.48-29.789-44.684-44.683-59.579-24.204-35.374-50.27-48.407-50.27-48.407l-9.308-5.585h-9.31c-5.585 0-9.308 0-14.894 5.585-26.065 1.862-40.96 16.756-67.025 31.651l-3.724 5.585c-50.27 39.099-80.058 93.091-74.473 132.19 9.31 74.472 109.848 251.345 253.208 385.396C482.21 798.72 679.564 893.673 754.036 902.98c44.684 5.586 83.782-14.894 139.637-59.577 14.894-14.895 35.374-39.099 44.683-59.579 5.586-9.309 5.586-24.203 5.586-24.203l-5.586-9.31c-7.447-5.585-7.447-9.308-11.17-9.308l-35.375-35.375c-24.204-20.48-53.993-39.098-74.473-53.993-24.203-14.894-39.098-24.203-44.683-29.789l-20.48-9.309h-9.31s-5.585 0-5.585 5.586v9.309z" fill="" p-id="2551"></path><path d="M631.156 394.705v1.862c0 1.862 0 1.862 1.862 3.724 3.724 11.17 13.033 18.618 24.204 18.618h1.862l199.214-13.033c14.895-1.861 26.066-13.032 24.204-27.927-1.862-14.894-13.033-26.065-27.927-24.204l-135.913 9.31 175.01-176.873c9.31-11.171 9.31-26.066 0-37.237-5.585-5.585-11.17-7.447-18.617-7.447s-13.033 3.724-18.619 7.447L636.742 372.364c-5.586 5.585-7.447 14.894-5.586 22.341M571.578 329.542c7.447 0 13.033-1.862 18.618-7.447L811.753 102.4c5.585-7.447 7.447-14.895 7.447-24.204v-5.585c-1.862-11.171-13.033-20.48-26.065-20.48L590.196 61.44c-14.894 0-26.065 13.033-26.065 27.927s13.033 26.066 26.065 26.066h1.862l135.913-5.586-176.873 175.011c-11.17 11.171-11.17 26.066 0 37.237 7.447 3.723 13.033 7.447 20.48 7.447" fill="" p-id="2552"></path></svg>